<svg width="9" height="11" viewBox="0 0 9 11" fill="none" xmlns="http://www.w3.org/2000/svg">
<path d="M7.3125 3.78V2.7C7.3125 1.188 6.075 0 4.5 0C2.925 0 1.6875 1.188 1.6875 2.7V3.78C0.73125 3.78 0 4.482 0 5.4V9.18C0 10.098 0.73125 10.8 1.6875 10.8H7.3125C8.26875 10.8 9 10.098 9 9.18V5.4C9 4.482 8.26875 3.78 7.3125 3.78ZM2.8125 2.7C2.8125 1.782 3.54375 1.08 4.5 1.08C5.45625 1.08 6.1875 1.782 6.1875 2.7V3.78H2.8125V2.7ZM5.0625 8.1C5.0625 8.424 4.8375 8.64 4.5 8.64C4.1625 8.64 3.9375 8.424 3.9375 8.1V6.48C3.9375 6.156 4.1625 5.94 4.5 5.94C4.8375 5.94 5.0625 6.156 5.0625 6.48V8.1Z" fill="white"/>
</svg>
